# xmcd
#
# Track frame offsets:
#	182
#	11807
#	25700
#	35255
#	44025
#	56675
#	67975
#	80885
#	93262
#	105025
#
# Disc length: 1540 seconds
#
# Revision: 2
# Processed by: cddbd v1.5.2PL0 Copyright (c) Steve Scherf et al.
# Submitted via: EasyCDDAExtractor 12.0.4.1
#
DISCID=7606020a
DTITLE=Various Artist - Billboard Top Country Hits 1959
DYEAR=1900
DGENRE=Country
TTITLE0=Johnny Horton - The Battle Of New Orleans
TTITLE1=Johnny Cash - Don't Take Your Guns To Town
TTITLE2=Jim Reeves - Billy Bayou
TTITLE3=Webb Pierce - I Ain't Never
TTITLE4=George Jones - White Lightning
TTITLE5=Stonewall Jackson - Waterloo
TTITLE6=The Browns - The Three Bells
TTITLE7=Buck Owen - Under Your spell Again
TTITLE8=Faron Young - Country Girl
TTITLE9=Wilma Lee and Stoney Cooper - There's A Big Wheel
EXTD=
EXTT0=
EXTT1=
EXTT2=
EXTT3=
EXTT4=
EXTT5=
EXTT6=
EXTT7=
EXTT8=
EXTT9=
PLAYORDER=
